<?xml version="1.0" encoding="UTF-8" standalone="no"?>
<svg
   version="1.0"
   width="1000.000000pt"
   height="1000.000000pt"
   viewBox="0 0 1000.000000 1000.000000"
   preserveAspectRatio="xMidYMid meet"
   id="svg6"
   sodipodi:docname="logo2.svg"
   inkscape:version="1.1.1 (3bf5ae0d25, 2021-09-20)"
   xmlns:inkscape="http://www.inkscape.org/namespaces/inkscape"
   xmlns:sodipodi="http://sodipodi.sourceforge.net/DTD/sodipodi-0.dtd"
   xmlns:xlink="http://www.w3.org/1999/xlink"
   xmlns="http://www.w3.org/2000/svg"
   xmlns:svg="http://www.w3.org/2000/svg">
  <defs
     id="defs10">
    <linearGradient
       inkscape:collect="always"
       id="linearGradient4064-1">
      <stop
         style="stop-color:#ff8945;stop-opacity:1"
         offset="0"
         id="stop895" />
      <stop
         style="stop-color:#ff1c5f;stop-opacity:1"
         offset="0.53009528"
         id="stop1620" />
      <stop
         style="stop-color:#781269;stop-opacity:1"
         offset="1"
         id="stop897" />
    </linearGradient>
    <linearGradient
       inkscape:collect="always"
       xlink:href="#linearGradient4064-1"
       id="linearGradient883"
       gradientUnits="userSpaceOnUse"
       x1="1381.6884"
       y1="8918.9385"
       x2="7989.6177"
       y2="-873.2691" />
  </defs>
  <sodipodi:namedview
     id="namedview8"
     pagecolor="#ffffff"
     bordercolor="#666666"
     borderopacity="1.0"
     inkscape:pageshadow="2"
     inkscape:pageopacity="0.0"
     inkscape:pagecheckerboard="0"
     inkscape:document-units="pt"
     showgrid="false"
     inkscape:zoom="0.5775"
     inkscape:cx="324.67532"
     inkscape:cy="838.09524"
     inkscape:window-width="1920"
     inkscape:window-height="974"
     inkscape:window-x="-11"
     inkscape:window-y="-11"
     inkscape:window-maximized="1"
     inkscape:current-layer="g4" />
  <g
     transform="translate(0.000000,1000.000000) scale(0.100000,-0.100000)"
     fill="#000000"
     stroke="none"
     id="g4">
    <path
       d="m 5344,9990 c -43,-16 -45,-27 -29,-191 8,-85 19,-219 24,-299 6,-80 14,-161 17,-180 4,-19 3,-32 -1,-28 -5,4 -14,3 -21,-3 -9,-8 -18,-5 -33,10 -12,12 -26,21 -32,21 -6,0 -43,29 -82,65 -39,36 -111,94 -161,129 -309,214 -399,268 -470,281 -31,6 -41,4 -62,-16 -55,-52 -11,-111 161,-215 167,-101 328,-226 446,-343 97,-98 110,-115 161,-221 83,-170 117,-273 111,-338 -4,-41 -2,-57 12,-72 16,-17 17,-37 12,-192 -5,-192 -28,-341 -83,-557 -40,-153 -74,-246 -152,-416 -69,-150 -89,-210 -98,-284 -5,-50 -4,-60 12,-69 24,-13 60,1 99,38 l 30,29 33,-20 c 17,-12 32,-25 32,-29 0,-12 -102,-364 -149,-515 -48,-153 -53,-221 -18,-258 43,-47 730,-337 905,-383 51,-13 94,-24 97,-24 6,0 1,-34 -37,-295 -18,-125 -33,-276 -37,-375 l -6,-165 -125,-77 c -69,-43 -208,-120 -308,-170 -178,-90 -184,-92 -198,-73 -40,58 -153,173 -180,183 -17,7 -49,12 -72,12 -37,0 -41,2 -39,22 1,13 20,36 47,55 130,95 133,96 176,97 38,1 48,-4 86,-42 24,-23 49,-42 55,-42 21,0 53,52 53,87 0,63 -43,119 -114,148 -30,13 -54,15 -100,10 -62,-7 -161,-50 -185,-79 -8,-9 -17,-16 -21,-16 -4,0 -22,-13 -39,-29 -42,-40 -110,-71 -152,-71 -33,0 -39,6 -134,143 -123,176 -291,392 -413,532 -5,6 3,28 19,54 38,60 111,236 144,346 14,50 49,160 77,245 67,205 80,348 24,268 -15,-22 -16,-21 -16,24 0,26 -5,69 -12,97 -11,50 -11,51 41,163 124,263 233,584 235,689 1,65 -14,89 -53,89 -37,0 -66,-34 -86,-100 -92,-310 -209,-620 -234,-620 -9,0 -43,18 -76,40 -67,45 -84,48 -108,22 -35,-38 -14,-149 45,-246 29,-47 30,-52 23,-130 -20,-245 -71,-482 -145,-675 -29,-74 -34,-81 -58,-81 -18,0 -49,17 -87,48 -127,103 -393,252 -592,333 -63,25 -83,38 -83,52 0,15 415,449 614,642 49,48 147,203 164,259 9,28 35,101 58,161 75,192 101,338 129,740 8,121 22,252 31,290 35,156 13,286 -50,293 -41,5 -70,-4 -107,-35 -56,-47 -45,-52 -312,144 -83,62 -168,122 -188,132 -20,11 -50,36 -67,56 -45,51 -43,86 11,164 101,148 311,483 349,556 39,76 40,82 27,110 -11,24 -22,31 -50,33 -57,5 -73,-15 -458,-571 -35,-51 -70,-94 -78,-95 -9,-2 -34,14 -57,36 -76,74 -236,162 -295,162 -10,0 -25,-8 -34,-18 -32,-35 -21,-59 57,-123 76,-62 95,-87 73,-94 -6,-2 -30,-9 -52,-16 -55,-16 -75,-36 -75,-75 0,-23 7,-38 26,-53 24,-19 35,-20 109,-15 l 82,7 83,-44 c 45,-24 110,-68 144,-98 33,-29 84,-68 111,-87 110,-74 151,-105 196,-150 26,-26 99,-81 161,-123 l 113,-77 -2,-94 c -5,-224 -36,-537 -68,-667 -39,-164 -42,-168 -260,-386 l -199,-198 -39,17 c -23,11 -72,54 -121,107 -134,146 -183,275 -241,632 -28,168 -68,308 -110,380 -36,60 -128,145 -158,145 -13,0 -32,-9 -42,-20 -16,-18 -17,-25 -5,-78 7,-31 25,-93 40,-137 50,-142 68,-216 100,-400 16,-99 40,-214 51,-255 13,-45 22,-109 23,-160 1,-78 4,-90 38,-150 48,-86 130,-163 215,-202 64,-30 82,-43 83,-60 0,-8 -200,-236 -310,-354 l -56,-61 -90,-7 c -49,-4 -100,-8 -114,-9 -20,-1 -350,70 -356,76 -4,4 -24,239 -34,407 -36,574 -93,844 -240,1145 -85,174 -161,288 -253,383 -143,147 -269,201 -427,185 -79,-8 -120,-40 -120,-95 1,-52 35,-96 231,-296 172,-175 187,-194 236,-287 110,-214 165,-440 187,-777 6,-85 5,-88 -19,-104 -21,-14 -44,-16 -133,-12 -150,6 -161,13 -221,141 -45,96 -55,109 -162,212 -101,98 -126,116 -219,162 -83,41 -118,53 -167,56 -60,5 -64,4 -83,-23 l -20,-28 32,-14 c 18,-7 78,-35 133,-63 169,-85 243,-170 315,-364 38,-104 55,-136 99,-184 58,-62 132,-81 397,-104 l 72,-6 6,-131 c 6,-119 27,-318 43,-405 6,-34 60,-103 94,-122 10,-5 96,-25 191,-44 401,-83 740,-180 953,-275 419,-185 628,-376 1039,-943 l 86,-118 -108,-152 c -60,-84 -139,-196 -176,-250 -130,-187 -201,-247 -296,-247 -93,0 -228,79 -346,201 -131,137 -205,271 -251,456 -25,98 -27,122 -24,263 7,306 5,363 -13,403 -24,54 -84,117 -111,117 -39,0 -46,-21 -40,-106 5,-56 0,-122 -14,-224 -36,-250 -25,-444 37,-618 29,-80 29,-80 8,-90 -51,-24 -55,-22 -139,51 -129,115 -221,161 -437,222 -194,54 -267,106 -383,269 -39,55 -99,138 -133,183 -34,45 -79,116 -99,158 -43,92 -98,287 -115,410 -16,121 -23,137 -58,133 -27,-3 -27,-4 -32,-85 -3,-45 -8,-84 -11,-88 -4,-3 -26,1 -50,9 -24,9 -51,16 -60,16 -29,0 -69,-40 -69,-68 0,-85 -53,-161 -137,-198 -67,-30 -83,-57 -55,-93 29,-38 68,-33 208,27 65,29 124,52 130,52 6,0 21,-11 34,-25 14,-15 35,-25 50,-25 25,0 29,-6 63,-117 20,-65 41,-140 47,-166 31,-142 114,-279 247,-408 133,-129 200,-165 412,-219 46,-12 105,-32 130,-45 53,-27 148,-96 207,-152 23,-21 80,-58 128,-83 48,-25 91,-52 96,-61 8,-14 -6,-26 -78,-67 -98,-57 -212,-165 -212,-202 0,-12 14,-35 30,-52 26,-25 35,-29 63,-23 17,4 61,30 96,58 35,27 69,50 75,50 71,1 67,-22 -21,-130 -197,-243 -351,-333 -548,-320 -83,5 -212,40 -427,116 -165,58 -244,73 -373,73 -119,0 -158,-10 -214,-58 -60,-50 -34,-82 79,-95 100,-12 128,-20 135,-36 3,-9 1,-21 -5,-28 -5,-6 -8,-14 -5,-17 3,-3 -4,-13 -15,-23 -26,-23 -26,-65 1,-99 17,-21 29,-26 65,-26 25,0 57,6 72,14 34,18 82,69 112,119 12,21 28,36 34,34 99,-38 378,-120 462,-136 130,-25 285,-27 369,-6 129,33 198,78 370,245 88,85 163,162 166,170 16,38 206,194 263,216 9,3 31,-4 50,-15 18,-12 67,-35 107,-53 69,-30 82,-32 194,-32 111,-1 124,1 180,27 80,38 280,239 404,407 51,69 96,126 101,128 7,3 135,-184 225,-328 15,-25 60,-79 100,-120 l 72,-75 12,-130 c 19,-212 29,-429 30,-611 1,-214 -3,-220 -84,-146 -103,95 -298,199 -435,233 -79,19 -277,17 -375,-5 -104,-23 -199,-59 -254,-96 -24,-17 -49,-30 -55,-30 -7,0 -30,18 -51,40 -21,22 -47,40 -57,40 -26,0 -50,-43 -42,-74 l 6,-26 h -135 c -153,0 -170,-7 -181,-71 -5,-28 -2,-42 15,-62 l 20,-27 147,1 c 81,0 170,4 197,8 28,3 70,2 93,-3 31,-7 61,-6 100,3 163,35 270,51 305,45 54,-9 51,-43 -8,-98 -52,-49 -59,-86 -24,-130 31,-39 81,-35 192,16 51,22 99,49 107,57 8,9 41,27 72,40 l 56,23 59,-38 c 32,-20 94,-72 138,-115 44,-43 100,-87 125,-98 25,-11 41,-21 36,-21 -5,0 -3,-7 4,-15 9,-11 11,-34 7,-78 -4,-34 -9,-145 -13,-247 -4,-155 -8,-250 -13,-328 -1,-9 -18,-11 -71,-6 -83,8 -110,-7 -110,-61 0,-37 23,-62 72,-75 18,-6 51,-27 71,-48 l 38,-38 4,-134 c 3,-94 1,-143 -8,-162 -14,-33 -14,-33 -57,-12 -61,31 -92,-17 -44,-67 24,-25 26,-32 16,-54 -7,-14 -12,-36 -12,-49 0,-30 40,-66 73,-66 34,0 41,-13 28,-53 -5,-17 -14,-48 -19,-67 -5,-19 -14,-34 -21,-32 -20,4 -66,-25 -99,-62 -36,-41 -52,-91 -52,-163 0,-44 4,-55 27,-73 21,-16 37,-20 61,-17 l 32,6 -5,-117 c -2,-64 -9,-151 -14,-192 -17,-129 -14,-230 9,-268 22,-36 27,-91 8,-97 -7,-2 -263,-6 -568,-9 -560,-5 -1032,-17 -1345,-36 -93,-5 -271,-15 -395,-21 -145,-7 -228,-15 -232,-23 -10,-14 -10,-78 0,-93 4,-6 66,-18 142,-27 C 2739,2 3036,0 5121,0 h 2367 l 6,23 c 11,40 7,47 -66,120 l -73,72 -140,2 c -77,1 -327,5 -555,10 -228,4 -417,6 -420,3 -3,-3 -101,-5 -218,-5 h -213 l -5,25 c -3,14 -18,68 -34,120 -55,180 -62,212 -58,262 4,37 -2,71 -20,126 -34,103 -38,307 -8,420 19,70 20,86 8,470 -7,218 -17,466 -22,551 -11,166 -9,191 20,191 10,0 28,9 41,19 37,30 32,96 -10,133 -17,15 -39,28 -48,28 -13,0 -15,10 -11,70 3,39 8,73 11,76 2,3 51,16 108,29 200,46 390,126 464,196 17,15 66,48 111,72 151,84 369,221 464,293 168,127 474,457 620,670 108,156 169,250 230,353 72,120 76,125 130,149 152,67 384,137 560,168 230,40 315,82 308,156 -3,30 -8,35 -58,56 -48,20 -67,22 -155,18 -113,-5 -255,-32 -395,-76 -92,-28 -147,-31 -136,-6 2,6 50,110 106,231 56,121 115,252 130,291 26,63 106,212 164,301 14,21 26,31 36,27 37,-14 228,-54 261,-54 49,0 79,33 79,87 0,54 -21,70 -116,88 -71,14 -93,25 -94,48 0,22 65,68 135,96 98,39 200,99 240,140 l 29,31 -21,22 c -21,20 -25,21 -108,9 -149,-21 -464,-143 -537,-209 -21,-19 -44,-53 -54,-80 -35,-97 -73,-170 -136,-262 -40,-58 -125,-215 -216,-400 -83,-168 -186,-369 -229,-447 l -78,-141 -105,-70 c -58,-38 -129,-90 -157,-116 -64,-58 -70,-91 -24,-137 20,-20 29,-37 27,-55 -5,-44 -187,-275 -340,-431 -66,-68 -86,-83 -111,-83 -46,0 -96,-17 -122,-42 -24,-22 -31,-62 -13,-73 18,-11 0,-48 -38,-83 -59,-53 -169,-142 -175,-142 -3,0 -17,-11 -31,-25 -54,-54 -80,-19 -66,87 5,40 14,233 20,428 11,361 15,426 30,435 5,3 20,0 35,-7 21,-10 29,-9 43,5 15,16 13,20 -29,64 -25,27 -45,53 -45,58 3,26 19,37 51,31 24,-5 39,-1 58,15 33,26 33,35 1,82 -14,21 -24,40 -21,43 2,2 70,28 151,58 81,30 156,62 167,72 30,27 26,91 -8,126 -15,15 -36,28 -48,28 -11,0 -100,-32 -195,-70 -141,-57 -184,-70 -220,-68 -36,3 -45,0 -48,-16 -2,-10 -19,-31 -37,-47 -32,-28 -34,-34 -40,-117 -3,-48 -20,-240 -36,-427 -17,-187 -36,-421 -44,-520 -12,-174 -32,-265 -57,-265 -5,0 -39,-29 -76,-63 -62,-59 -77,-67 -177,-100 -88,-30 -112,-35 -122,-24 -9,9 -14,99 -17,367 -4,351 -13,478 -51,720 -19,120 -33,165 -57,186 -17,16 -17,18 -2,36 10,10 22,18 29,18 23,0 210,81 310,134 175,94 446,270 675,439 192,142 479,430 579,581 112,170 202,360 277,586 15,47 45,119 66,160 21,41 68,165 104,275 37,110 72,211 79,225 20,37 142,153 199,189 l 49,30 32,-28 c 61,-53 193,-101 280,-101 58,0 98,41 93,96 -2,32 -9,43 -40,63 -40,26 -47,46 -24,76 12,17 32,19 282,21 240,1 273,3 309,20 51,24 67,64 39,95 -46,51 -89,62 -254,67 -85,2 -210,-1 -278,-7 -126,-10 -152,-8 -152,14 0,7 15,53 34,102 34,88 59,216 71,373 3,41 11,120 17,175 7,55 12,118 12,140 1,36 -2,40 -26,43 -24,3 -30,-3 -52,-47 -36,-71 -62,-176 -81,-326 -27,-215 -52,-299 -128,-417 -37,-58 -329,-333 -382,-361 -49,-25 -121,-109 -160,-187 -20,-40 -61,-110 -90,-155 -88,-137 -167,-278 -288,-520 -64,-126 -144,-273 -178,-325 -88,-133 -253,-300 -423,-426 -143,-107 -186,-126 -186,-81 0,65 74,364 194,784 95,332 145,598 146,764 0,87 -3,83 110,149 297,172 573,432 755,712 33,52 40,72 43,125 4,51 1,68 -13,83 -17,19 -17,22 4,77 36,99 70,272 82,425 l 12,146 38,17 c 52,24 89,65 95,107 5,29 1,41 -24,69 -26,29 -35,33 -75,31 -51,-2 -62,7 -71,58 -10,57 -62,183 -79,194 -12,8 -20,7 -29,-2 -9,-9 -9,-28 3,-89 8,-45 13,-122 11,-182 -2,-89 -5,-108 -22,-126 -24,-25 -26,-53 -5,-61 13,-5 14,-31 9,-188 -5,-160 -9,-192 -34,-276 -38,-124 -114,-277 -200,-404 -65,-95 -206,-247 -277,-298 -17,-13 -96,-72 -175,-132 -124,-94 -186,-134 -193,-124 -1,2 -12,32 -24,68 -25,69 -84,194 -143,300 -38,69 -95,234 -104,304 -5,38 -2,46 44,106 70,93 190,203 253,233 30,14 82,32 117,39 57,11 70,10 157,-12 92,-23 95,-23 115,-5 11,10 20,24 20,31 0,25 -55,77 -109,103 -84,40 -82,53 27,150 22,21 32,38 32,59 0,79 -93,112 -144,51 -14,-17 -26,-37 -26,-46 0,-8 -25,-47 -55,-86 -37,-47 -55,-80 -55,-99 0,-20 -5,-28 -17,-28 -43,-1 -177,-78 -253,-145 -43,-38 -79,-74 -80,-80 0,-5 -13,-25 -28,-43 -44,-53 -57,-33 -96,153 -19,88 -40,194 -47,235 -7,41 -19,83 -27,93 -17,20 -62,23 -80,5 -18,-18 -15,-124 8,-281 47,-317 80,-429 235,-795 52,-125 56,-138 51,-195 -3,-34 -8,-109 -11,-167 -7,-127 -23,-286 -35,-360 -5,-30 -14,-91 -20,-135 -6,-44 -16,-95 -21,-112 -10,-31 -13,-33 -58,-33 -104,0 -151,-66 -170,-236 -21,-196 -20,-194 -85,-150 -40,27 -362,174 -556,253 -127,52 -154,68 -145,84 11,16 118,450 144,584 48,239 82,498 88,665 5,131 2,175 -17,288 -19,118 -21,143 -11,233 6,55 11,135 11,178 0,91 0,91 95,91 57,0 66,3 85,27 25,32 21,63 -16,107 -22,26 -24,30 -10,38 17,9 117,-7 229,-38 53,-14 60,-14 83,1 54,35 22,92 -82,141 -40,20 -76,39 -79,44 -3,5 19,20 49,35 81,39 136,90 136,125 0,30 -30,60 -60,60 -9,0 -37,-22 -64,-49 -27,-27 -94,-82 -149,-123 -56,-40 -113,-85 -127,-99 -31,-32 -67,-52 -80,-44 -6,3 -10,35 -10,71 0,153 -58,666 -95,834 -12,58 -30,150 -40,205 -10,55 -21,105 -27,111 -12,17 -40,22 -64,14 z"
       id="path2"
       style="opacity:1;mix-blend-mode:normal;fill:url(#linearGradient883);fill-opacity:1;stroke-width:1;stroke-miterlimit:4;stroke-dasharray:none" />
  </g>
</svg>
